<svg width="455" height="7" viewBox="0 0 455 7" fill="none" xmlns="http://www.w3.org/2000/svg">
<path d="M3.5 0L6.53109 5.25H0.468911L3.5 0Z" fill="#172755"/>
<path d="M51.5 0L54.5311 5.25H48.4689L51.5 0Z" fill="#172755"/>
<path d="M99.5 0L102.531 5.25H96.4689L99.5 0Z" fill="#172755"/>
<path d="M147.5 0L150.531 5.25H144.469L147.5 0Z" fill="#172755"/>
<path d="M195.5 0L198.531 5.25H192.469L195.5 0Z" fill="#172755"/>
<path d="M243.5 0L246.531 5.25H240.469L243.5 0Z" fill="#172755"/>
<path d="M291.5 0L294.531 5.25H288.469L291.5 0Z" fill="#172755"/>
<path d="M339.5 0L342.531 5.25H336.469L339.5 0Z" fill="#172755"/>
<path d="M387.5 0L390.531 5.25H384.469L387.5 0Z" fill="#172755"/>
<path d="M11.5 0L14.5311 5.25H8.46891L11.5 0Z" fill="#172755"/>
<path d="M59.5 0L62.5311 5.25H56.4689L59.5 0Z" fill="#172755"/>
<path d="M107.5 0L110.531 5.25H104.469L107.5 0Z" fill="#172755"/>
<path d="M155.5 0L158.531 5.25H152.469L155.5 0Z" fill="#172755"/>
<path d="M203.5 0L206.531 5.25H200.469L203.5 0Z" fill="#172755"/>
<path d="M251.5 0L254.531 5.25H248.469L251.5 0Z" fill="#172755"/>
<path d="M299.5 0L302.531 5.25H296.469L299.5 0Z" fill="#172755"/>
<path d="M347.5 0L350.531 5.25H344.469L347.5 0Z" fill="#172755"/>
<path d="M395.5 0L398.531 5.25H392.469L395.5 0Z" fill="#172755"/>
<path d="M19.5 0L22.5311 5.25H16.4689L19.5 0Z" fill="#172755"/>
<path d="M67.5 0L70.5311 5.25H64.4689L67.5 0Z" fill="#172755"/>
<path d="M115.5 0L118.531 5.25H112.469L115.5 0Z" fill="#172755"/>
<path d="M163.5 0L166.531 5.25H160.469L163.5 0Z" fill="#172755"/>
<path d="M211.5 0L214.531 5.25H208.469L211.5 0Z" fill="#172755"/>
<path d="M259.5 0L262.531 5.25H256.469L259.5 0Z" fill="#172755"/>
<path d="M307.5 0L310.531 5.25H304.469L307.5 0Z" fill="#172755"/>
<path d="M355.5 0L358.531 5.25H352.469L355.5 0Z" fill="#172755"/>
<path d="M403.5 0L406.531 5.25H400.469L403.5 0Z" fill="#172755"/>
<path d="M27.5 0L30.5311 5.25H24.4689L27.5 0Z" fill="#172755"/>
<path d="M75.5 0L78.5311 5.25H72.4689L75.5 0Z" fill="#172755"/>
<path d="M123.5 0L126.531 5.25H120.469L123.5 0Z" fill="#172755"/>
<path d="M171.5 0L174.531 5.25H168.469L171.5 0Z" fill="#172755"/>
<path d="M219.5 0L222.531 5.25H216.469L219.5 0Z" fill="#172755"/>
<path d="M267.5 0L270.531 5.25H264.469L267.5 0Z" fill="#172755"/>
<path d="M315.5 0L318.531 5.25H312.469L315.5 0Z" fill="#172755"/>
<path d="M363.5 0L366.531 5.25H360.469L363.5 0Z" fill="#172755"/>
<path d="M411.5 0L414.531 5.25H408.469L411.5 0Z" fill="#172755"/>
<path d="M35.5 0L38.5311 5.25H32.4689L35.5 0Z" fill="#172755"/>
<path d="M83.5 0L86.5311 5.25H80.4689L83.5 0Z" fill="#172755"/>
<path d="M131.5 0L134.531 5.25H128.469L131.5 0Z" fill="#172755"/>
<path d="M179.5 0L182.531 5.25H176.469L179.5 0Z" fill="#172755"/>
<path d="M227.5 0L230.531 5.25H224.469L227.5 0Z" fill="#172755"/>
<path d="M275.5 0L278.531 5.25H272.469L275.5 0Z" fill="#172755"/>
<path d="M323.5 0L326.531 5.25H320.469L323.5 0Z" fill="#172755"/>
<path d="M371.5 0L374.531 5.25H368.469L371.5 0Z" fill="#172755"/>
<path d="M419.5 0L422.531 5.25H416.469L419.5 0Z" fill="#172755"/>
<path d="M43.5 0L46.5311 5.25H40.4689L43.5 0Z" fill="#172755"/>
<path d="M91.5 0L94.5311 5.25H88.4689L91.5 0Z" fill="#172755"/>
<path d="M139.5 0L142.531 5.25H136.469L139.5 0Z" fill="#172755"/>
<path d="M187.5 0L190.531 5.25H184.469L187.5 0Z" fill="#172755"/>
<path d="M235.5 0L238.531 5.25H232.469L235.5 0Z" fill="#172755"/>
<path d="M283.5 0L286.531 5.25H280.469L283.5 0Z" fill="#172755"/>
<path d="M331.5 0L334.531 5.25H328.469L331.5 0Z" fill="#172755"/>
<path d="M379.5 0L382.531 5.25H376.469L379.5 0Z" fill="#172755"/>
<path d="M427.5 0L430.531 5.25H424.469L427.5 0Z" fill="#172755"/>
<path d="M435.5 0L438.531 5.25H432.469L435.5 0Z" fill="#172755"/>
<path d="M443.5 0L446.531 5.25H440.469L443.5 0Z" fill="#172755"/>
<path d="M451.5 0L454.531 5.25H448.469L451.5 0Z" fill="#172755"/>
<rect y="5" width="455" height="2" rx="1" fill="#172755"/>
</svg>
