<svg width="143" height="21" viewBox="0 0 143 21" fill="none" xmlns="http://www.w3.org/2000/svg">
<path d="M15.9279 15.712C16.0719 15.712 16.1519 15.728 16.1679 15.76C16.1999 15.776 16.2159 15.856 16.2159 16C16.2159 16.256 16.1919 16.56 16.1439 16.912C16.0159 18.064 15.9519 19.16 15.9519 20.2C15.9519 20.28 15.9039 20.32 15.8079 20.32C15.7119 20.32 15.6639 20.28 15.6639 20.2C15.6639 18.872 15.2559 17.84 14.4399 17.104C13.6239 16.368 12.4559 16 10.9359 16H4.88787C3.43187 16 2.39987 16.32 1.79187 16.96C1.18387 17.6 0.879872 18.68 0.879872 20.2C0.879872 20.28 0.831872 20.32 0.735872 20.32C0.639872 20.32 0.591872 20.28 0.591872 20.2C0.591872 19.112 0.543872 18.248 0.447872 17.608C0.367872 16.984 0.319872 16.632 0.303872 16.552C0.239872 16.136 0.207872 15.904 0.207872 15.856C0.207872 15.712 0.215872 15.632 0.231872 15.616C0.263872 15.584 0.351872 15.568 0.495872 15.568C1.67987 15.568 2.70387 14.848 3.56787 13.408C4.44787 11.952 5.11187 10.24 5.55987 8.272C6.00787 6.304 6.23187 4.616 6.23187 3.208C6.23187 2.616 6.00787 2.152 5.55987 1.816C5.11187 1.464 4.47187 1.288 3.63987 1.288C3.59187 1.288 3.56787 1.24 3.56787 1.144C3.56787 1.048 3.59187 1 3.63987 1H15.4719C15.5199 1 15.5439 1.048 15.5439 1.144C15.5439 1.24 15.5199 1.288 15.4719 1.288C14.9279 1.288 14.5279 1.336 14.2719 1.432C14.0159 1.512 13.8399 1.664 13.7439 1.888C13.6479 2.112 13.5999 2.464 13.5999 2.944V14.056C13.5999 14.68 13.6319 15.088 13.6959 15.28C13.7599 15.472 13.9279 15.592 14.1999 15.64C14.4879 15.688 15.0639 15.712 15.9279 15.712ZM10.9359 2.992C10.9359 2.496 10.9119 2.168 10.8639 2.008C10.8319 1.832 10.7439 1.728 10.5999 1.696C10.4559 1.648 10.1679 1.624 9.73587 1.624H8.34387C7.92787 1.624 7.63187 1.664 7.45587 1.744C7.29587 1.824 7.18387 1.968 7.11987 2.176C7.07187 2.368 7.02387 2.728 6.97587 3.256C6.97587 3.368 6.95987 3.584 6.92787 3.904C6.68787 6.176 6.25587 8.424 5.63187 10.648C5.02387 12.856 4.12787 14.424 2.94387 15.352H9.61587C9.71187 15.352 9.92787 15.352 10.2639 15.352C10.6159 15.352 10.8159 15.264 10.8639 15.088C10.9119 14.896 10.9359 14.536 10.9359 14.008V2.992ZM27.3074 16.288C25.8194 16.288 24.4914 15.944 23.3234 15.256C22.1714 14.552 21.2754 13.608 20.6354 12.424C20.0114 11.224 19.6994 9.92 19.6994 8.512C19.6994 6.864 20.1154 5.456 20.9474 4.288C21.7794 3.104 22.8434 2.216 24.1394 1.624C25.4514 1.032 26.7874 0.735999 28.1474 0.735999C29.6674 0.735999 31.0034 1.096 32.1554 1.816C33.3074 2.52 34.1874 3.456 34.7954 4.624C35.4194 5.792 35.7314 7.032 35.7314 8.344C35.7314 9.8 35.3474 11.136 34.5794 12.352C33.8114 13.568 32.7794 14.528 31.4834 15.232C30.2034 15.936 28.8114 16.288 27.3074 16.288ZM28.0994 15.688C28.9954 15.688 29.7954 15.432 30.4994 14.92C31.2194 14.392 31.7794 13.632 32.1794 12.64C32.5794 11.632 32.7794 10.432 32.7794 9.04C32.7794 7.568 32.5554 6.256 32.1074 5.104C31.6594 3.936 31.0114 3.024 30.1634 2.368C29.3154 1.712 28.3234 1.384 27.1874 1.384C25.7314 1.384 24.6114 1.936 23.8274 3.04C23.0434 4.128 22.6514 5.656 22.6514 7.624C22.6514 9.176 22.8834 10.568 23.3474 11.8C23.8274 13.016 24.4754 13.968 25.2914 14.656C26.1234 15.344 27.0594 15.688 28.0994 15.688ZM48.8024 0.735999C49.5064 0.735999 50.2424 0.799999 51.0104 0.927999C51.7784 1.04 52.3784 1.192 52.8104 1.384C52.9544 1.432 53.0424 1.496 53.0744 1.576C53.1224 1.64 53.1624 1.76 53.1944 1.936L53.4824 5.272C53.4824 5.32 53.4424 5.352 53.3624 5.368C53.2824 5.384 53.2344 5.36 53.2184 5.296C52.6744 4.032 51.9464 3.056 51.0344 2.368C50.1224 1.68 49.0664 1.336 47.8664 1.336C46.2824 1.336 45.0584 1.92 44.1944 3.088C43.3304 4.256 42.8984 5.824 42.8984 7.792C42.8984 9.264 43.1304 10.608 43.5944 11.824C44.0744 13.04 44.7384 14.008 45.5864 14.728C46.4504 15.432 47.4264 15.784 48.5144 15.784C49.5384 15.784 50.4504 15.448 51.2504 14.776C52.0664 14.088 52.7944 13.048 53.4344 11.656C53.4504 11.592 53.4984 11.568 53.5784 11.584C53.6744 11.6 53.7224 11.632 53.7224 11.68L53.3624 14.944C53.3304 15.136 53.2904 15.264 53.2424 15.328C53.2104 15.376 53.1224 15.432 52.9784 15.496C51.5544 16.024 50.0904 16.288 48.5864 16.288C46.6344 16.288 45.0024 15.904 43.6904 15.136C42.3784 14.352 41.4104 13.368 40.7864 12.184C40.1784 10.984 39.8744 9.736 39.8744 8.44C39.8744 6.92 40.2824 5.576 41.0984 4.408C41.9304 3.24 43.0264 2.336 44.3864 1.696C45.7624 1.056 47.2344 0.735999 48.8024 0.735999ZM61.8811 1.552C59.9771 1.552 58.6091 2.792 57.7771 5.272C57.7611 5.32 57.7131 5.344 57.6331 5.344C57.5531 5.328 57.5131 5.296 57.5131 5.248C57.5771 4.608 57.6491 3.784 57.7291 2.776C57.8091 1.752 57.8491 0.984 57.8491 0.472C57.8491 0.392 57.8891 0.352 57.9691 0.352C58.0651 0.352 58.1131 0.392 58.1131 0.472C58.1131 0.824 58.5691 1 59.4811 1C60.8571 1.048 62.4651 1.072 64.3051 1.072C65.2491 1.072 66.2491 1.056 67.3051 1.024L68.9371 1C69.5451 1 69.9851 0.96 70.2571 0.879999C70.5451 0.799999 70.7291 0.639999 70.8091 0.399999C70.8251 0.335999 70.8731 0.303999 70.9531 0.303999C71.0491 0.303999 71.0971 0.335999 71.0971 0.399999C71.0491 0.88 70.9931 1.648 70.9291 2.704C70.8811 3.76 70.8571 4.608 70.8571 5.248C70.8571 5.296 70.8171 5.32 70.7371 5.32C70.6571 5.32 70.6091 5.296 70.5931 5.248C70.3531 4.016 69.9051 3.096 69.2491 2.488C68.5931 1.864 67.7851 1.552 66.8251 1.552C66.3611 1.552 66.0491 1.656 65.8891 1.864C65.7451 2.056 65.6731 2.432 65.6731 2.992V14.056C65.6731 14.552 65.7211 14.912 65.8171 15.136C65.9131 15.36 66.0971 15.512 66.3691 15.592C66.6411 15.672 67.0731 15.712 67.6651 15.712C67.7131 15.712 67.7371 15.76 67.7371 15.856C67.7371 15.952 67.7131 16 67.6651 16C67.0891 16 66.6331 15.992 66.2971 15.976L64.3051 15.952L62.3611 15.976C62.0251 15.992 61.5611 16 60.9691 16C60.9211 16 60.8971 15.952 60.8971 15.856C60.8971 15.76 60.9211 15.712 60.9691 15.712C61.5451 15.712 61.9691 15.672 62.2411 15.592C62.5291 15.512 62.7211 15.36 62.8171 15.136C62.9291 14.896 62.9851 14.536 62.9851 14.056V2.944C62.9851 2.4 62.9131 2.032 62.7691 1.84C62.6251 1.648 62.3291 1.552 61.8811 1.552ZM89.2955 15.712C89.3755 15.712 89.4155 15.76 89.4155 15.856C89.4155 15.952 89.3755 16 89.2955 16C88.9755 16 88.4795 15.984 87.8075 15.952C87.1035 15.92 86.5995 15.904 86.2955 15.904C85.8955 15.904 85.4075 15.92 84.8315 15.952C84.2875 15.984 83.8555 16 83.5355 16C83.4715 16 83.4395 15.952 83.4395 15.856C83.4395 15.76 83.4715 15.712 83.5355 15.712C83.9515 15.712 84.2475 15.672 84.4235 15.592C84.6155 15.496 84.7115 15.336 84.7115 15.112C84.7115 14.84 84.5515 14.384 84.2315 13.744L81.7355 8.824H77.4635L75.7595 12.592C75.5515 13.056 75.4475 13.488 75.4475 13.888C75.4475 14.464 75.6475 14.912 76.0475 15.232C76.4635 15.552 77.0155 15.712 77.7035 15.712C77.7835 15.712 77.8235 15.76 77.8235 15.856C77.8235 15.952 77.7835 16 77.7035 16C77.4155 16 76.9995 15.984 76.4555 15.952C75.8475 15.92 75.3195 15.904 74.8715 15.904C74.4395 15.904 73.9195 15.92 73.3115 15.952C72.7675 15.984 72.3275 16 71.9915 16C71.9275 16 71.8955 15.952 71.8955 15.856C71.8955 15.76 71.9275 15.712 71.9915 15.712C72.4395 15.712 72.8155 15.624 73.1195 15.448C73.4235 15.256 73.7275 14.928 74.0315 14.464C74.3355 13.984 74.6955 13.28 75.1115 12.352L80.3195 0.904C80.3515 0.855999 80.4235 0.831999 80.5355 0.831999C80.6635 0.831999 80.7355 0.855999 80.7515 0.904L86.7515 12.712C87.3115 13.848 87.7755 14.632 88.1435 15.064C88.5115 15.496 88.8955 15.712 89.2955 15.712ZM77.7755 8.152H81.3995L79.4795 4.36L77.7755 8.152ZM99.7072 7.576C101.051 7.736 102.115 8.184 102.899 8.92C103.699 9.656 104.099 10.568 104.099 11.656C104.099 12.488 103.859 13.24 103.379 13.912C102.899 14.584 102.235 15.12 101.387 15.52C100.539 15.904 99.5952 16.096 98.5552 16.096C98.1072 16.096 97.5952 16.072 97.0192 16.024C96.7952 16.008 96.5152 15.992 96.1792 15.976C95.8592 15.96 95.4992 15.952 95.0992 15.952L93.3472 15.976C93.0272 15.992 92.5952 16 92.0512 16C92.0032 16 91.9792 15.952 91.9792 15.856C91.9792 15.76 92.0032 15.712 92.0512 15.712C92.5152 15.712 92.8672 15.672 93.1072 15.592C93.3472 15.496 93.5152 15.336 93.6112 15.112C93.7232 14.872 93.7792 14.52 93.7792 14.056V2.944C93.7792 2.272 93.6672 1.832 93.4432 1.624C93.2192 1.4 92.7632 1.288 92.0752 1.288C92.0432 1.288 92.0272 1.24 92.0272 1.144C92.0272 1.048 92.0432 1 92.0752 1L93.3472 1.024C94.0832 1.056 94.6672 1.072 95.0992 1.072C95.5472 1.072 96.0112 1.048 96.4912 1C96.6512 0.983999 96.8912 0.967999 97.2112 0.951999C97.5312 0.935999 97.8112 0.927999 98.0512 0.927999C99.5072 0.927999 100.635 1.192 101.435 1.72C102.235 2.248 102.635 3.016 102.635 4.024C102.635 4.792 102.379 5.488 101.867 6.112C101.371 6.736 100.651 7.224 99.7072 7.576ZM97.6912 1.456C97.2272 1.456 96.9072 1.568 96.7312 1.792C96.5552 2 96.4672 2.4 96.4672 2.992V7.552L97.4272 7.576C98.2592 7.576 98.8992 7.264 99.3472 6.64C99.7952 6.016 100.019 5.216 100.019 4.24C100.019 3.328 99.8192 2.64 99.4192 2.176C99.0192 1.696 98.4432 1.456 97.6912 1.456ZM98.1472 15.496C100.243 15.496 101.291 14.408 101.291 12.232C101.291 11 100.995 10.024 100.403 9.304C99.8112 8.584 98.9152 8.224 97.7152 8.224C97.2512 8.224 96.8352 8.24 96.4672 8.272V14.056C96.4672 14.584 96.5712 14.96 96.7792 15.184C96.9872 15.392 97.4432 15.496 98.1472 15.496ZM123.365 15.712C123.413 15.712 123.437 15.76 123.437 15.856C123.437 15.952 123.413 16 123.365 16H119.669C119.461 16 119.269 15.936 119.093 15.808C118.933 15.68 118.645 15.352 118.229 14.824C117.813 14.28 117.133 13.328 116.189 11.968L115.541 11.056C114.981 10.24 114.565 9.672 114.293 9.352C114.021 9.016 113.733 8.784 113.429 8.656C113.141 8.512 112.757 8.44 112.277 8.44V14.056C112.277 14.536 112.317 14.896 112.397 15.136C112.493 15.36 112.669 15.512 112.925 15.592C113.181 15.672 113.581 15.712 114.125 15.712C114.173 15.712 114.197 15.76 114.197 15.856C114.197 15.952 114.173 16 114.125 16C113.565 16 113.117 15.992 112.781 15.976L110.789 15.952L109.037 15.976C108.717 15.992 108.285 16 107.741 16C107.693 16 107.669 15.952 107.669 15.856C107.669 15.76 107.693 15.712 107.741 15.712C108.285 15.712 108.685 15.672 108.941 15.592C109.197 15.512 109.373 15.36 109.469 15.136C109.565 14.896 109.613 14.536 109.613 14.056V2.944C109.613 2.464 109.565 2.112 109.469 1.888C109.373 1.664 109.197 1.512 108.941 1.432C108.701 1.336 108.309 1.288 107.765 1.288C107.717 1.288 107.693 1.24 107.693 1.144C107.693 1.048 107.717 1 107.765 1L109.037 1.024C109.773 1.056 110.357 1.072 110.789 1.072C111.333 1.072 112.005 1.056 112.805 1.024L114.125 1C114.173 1 114.197 1.048 114.197 1.144C114.197 1.24 114.173 1.288 114.125 1.288C113.597 1.288 113.205 1.336 112.949 1.432C112.693 1.528 112.517 1.696 112.421 1.936C112.325 2.16 112.277 2.512 112.277 2.992V8.032C112.709 8.016 113.253 8.008 113.909 8.008L116.429 4.552C117.085 3.64 117.413 2.88 117.413 2.272C117.413 1.968 117.325 1.728 117.149 1.552C116.973 1.376 116.733 1.288 116.429 1.288C116.397 1.288 116.381 1.24 116.381 1.144C116.381 1.048 116.397 1 116.429 1L117.533 1.024C118.237 1.056 118.861 1.072 119.405 1.072C120.029 1.072 120.677 1.056 121.349 1.024L122.381 1C122.429 1 122.453 1.048 122.453 1.144C122.453 1.24 122.429 1.288 122.381 1.288C121.677 1.288 120.885 1.544 120.005 2.056C119.125 2.568 118.381 3.208 117.773 3.976L114.509 8.032C115.133 8.064 115.645 8.184 116.045 8.392C116.445 8.584 116.837 8.896 117.221 9.328C117.621 9.76 118.181 10.48 118.901 11.488L119.333 12.088C120.005 13.016 120.525 13.712 120.893 14.176C121.277 14.64 121.669 15.008 122.069 15.28C122.469 15.552 122.901 15.696 123.365 15.712ZM142.156 15.712C142.236 15.712 142.276 15.76 142.276 15.856C142.276 15.952 142.236 16 142.156 16C141.836 16 141.34 15.984 140.668 15.952C139.964 15.92 139.46 15.904 139.156 15.904C138.756 15.904 138.268 15.92 137.692 15.952C137.148 15.984 136.716 16 136.396 16C136.332 16 136.3 15.952 136.3 15.856C136.3 15.76 136.332 15.712 136.396 15.712C136.812 15.712 137.108 15.672 137.284 15.592C137.476 15.496 137.572 15.336 137.572 15.112C137.572 14.84 137.412 14.384 137.092 13.744L134.596 8.824H130.324L128.62 12.592C128.412 13.056 128.308 13.488 128.308 13.888C128.308 14.464 128.508 14.912 128.908 15.232C129.324 15.552 129.876 15.712 130.564 15.712C130.644 15.712 130.684 15.76 130.684 15.856C130.684 15.952 130.644 16 130.564 16C130.276 16 129.86 15.984 129.316 15.952C128.708 15.92 128.18 15.904 127.732 15.904C127.3 15.904 126.78 15.92 126.172 15.952C125.628 15.984 125.188 16 124.852 16C124.788 16 124.756 15.952 124.756 15.856C124.756 15.76 124.788 15.712 124.852 15.712C125.3 15.712 125.676 15.624 125.98 15.448C126.284 15.256 126.588 14.928 126.892 14.464C127.196 13.984 127.556 13.28 127.972 12.352L133.18 0.904C133.212 0.855999 133.284 0.831999 133.396 0.831999C133.524 0.831999 133.596 0.855999 133.612 0.904L139.612 12.712C140.172 13.848 140.636 14.632 141.004 15.064C141.372 15.496 141.756 15.712 142.156 15.712ZM130.636 8.152H134.26L132.34 4.36L130.636 8.152Z" fill="white"/>
</svg>
